<mxfile host="app.diagrams.net" agent="Mozilla/5.0 (Windows NT 10.0; Win64; x64; rv:137.0) Gecko/20100101 Firefox/137.0" version="26.2.9">
  <diagram name="Страница — 1" id="RAcvNsrmOQ6BtEiOrjyd">
    <mxGraphModel dx="1108" dy="589" grid="1" gridSize="10" guides="1" tooltips="1" connect="1" arrows="1" fold="1" page="1" pageScale="1" pageWidth="827" pageHeight="1169" math="0" shadow="0">
      <root>
        <mxCell id="0" />
        <mxCell id="1" parent="0" />
        <mxCell id="FwpRCXI6O_V7CuimWUvE-1" value="алгоритм установки дверей" style="text;html=1;align=center;verticalAlign=middle;whiteSpace=wrap;rounded=0;" parent="1" vertex="1">
          <mxGeometry x="60" y="40" width="60" height="50" as="geometry" />
        </mxCell>
        <mxCell id="FwpRCXI6O_V7CuimWUvE-2" value="алгоритм управления скейтом." style="text;html=1;align=center;verticalAlign=middle;whiteSpace=wrap;rounded=0;" parent="1" vertex="1">
          <mxGeometry x="377" y="40" width="74" height="50" as="geometry" />
        </mxCell>
        <mxCell id="FwpRCXI6O_V7CuimWUvE-3" value="алгоритм мытья посуды" style="text;html=1;align=center;verticalAlign=middle;whiteSpace=wrap;rounded=0;" parent="1" vertex="1">
          <mxGeometry x="690" y="40" width="80" height="50" as="geometry" />
        </mxCell>
        <mxCell id="FwpRCXI6O_V7CuimWUvE-6" value="" style="edgeStyle=orthogonalEdgeStyle;rounded=0;orthogonalLoop=1;jettySize=auto;html=1;" parent="1" source="FwpRCXI6O_V7CuimWUvE-4" target="FwpRCXI6O_V7CuimWUvE-5" edge="1">
          <mxGeometry relative="1" as="geometry" />
        </mxCell>
        <mxCell id="FwpRCXI6O_V7CuimWUvE-4" value="&lt;div&gt;Начало&lt;/div&gt;" style="rounded=1;whiteSpace=wrap;html=1;" parent="1" vertex="1">
          <mxGeometry x="30" y="100" width="120" height="60" as="geometry" />
        </mxCell>
        <mxCell id="FwpRCXI6O_V7CuimWUvE-8" value="" style="edgeStyle=orthogonalEdgeStyle;rounded=0;orthogonalLoop=1;jettySize=auto;html=1;" parent="1" source="FwpRCXI6O_V7CuimWUvE-5" target="FwpRCXI6O_V7CuimWUvE-7" edge="1">
          <mxGeometry relative="1" as="geometry" />
        </mxCell>
        <mxCell id="FwpRCXI6O_V7CuimWUvE-5" value="Дверь, дверной проем" style="shape=parallelogram;perimeter=parallelogramPerimeter;whiteSpace=wrap;html=1;fixedSize=1;rounded=1;arcSize=0;" parent="1" vertex="1">
          <mxGeometry x="30" y="170" width="120" height="60" as="geometry" />
        </mxCell>
        <mxCell id="FwpRCXI6O_V7CuimWUvE-10" value="" style="edgeStyle=orthogonalEdgeStyle;rounded=0;orthogonalLoop=1;jettySize=auto;html=1;" parent="1" source="FwpRCXI6O_V7CuimWUvE-7" target="FwpRCXI6O_V7CuimWUvE-9" edge="1">
          <mxGeometry relative="1" as="geometry" />
        </mxCell>
        <mxCell id="FwpRCXI6O_V7CuimWUvE-14" value="" style="edgeStyle=orthogonalEdgeStyle;rounded=0;orthogonalLoop=1;jettySize=auto;html=1;" parent="1" source="FwpRCXI6O_V7CuimWUvE-7" target="FwpRCXI6O_V7CuimWUvE-13" edge="1">
          <mxGeometry relative="1" as="geometry" />
        </mxCell>
        <mxCell id="FwpRCXI6O_V7CuimWUvE-7" value="&lt;div&gt;Есть помехи &lt;br&gt;мешающие установки двери в проем?&lt;/div&gt;" style="rhombus;whiteSpace=wrap;html=1;rounded=1;arcSize=0;" parent="1" vertex="1">
          <mxGeometry x="15" y="240" width="150" height="150" as="geometry" />
        </mxCell>
        <mxCell id="FwpRCXI6O_V7CuimWUvE-12" style="edgeStyle=orthogonalEdgeStyle;rounded=0;orthogonalLoop=1;jettySize=auto;html=1;exitX=0.5;exitY=0;exitDx=0;exitDy=0;" parent="1" source="FwpRCXI6O_V7CuimWUvE-9" edge="1">
          <mxGeometry relative="1" as="geometry">
            <mxPoint x="90" y="240" as="targetPoint" />
            <Array as="points">
              <mxPoint x="280" y="240" />
            </Array>
          </mxGeometry>
        </mxCell>
        <mxCell id="FwpRCXI6O_V7CuimWUvE-9" value="Устраняем помеху" style="whiteSpace=wrap;html=1;rounded=1;arcSize=0;" parent="1" vertex="1">
          <mxGeometry x="180" y="285" width="120" height="60" as="geometry" />
        </mxCell>
        <mxCell id="FwpRCXI6O_V7CuimWUvE-11" value="ДА" style="text;html=1;align=center;verticalAlign=middle;whiteSpace=wrap;rounded=0;" parent="1" vertex="1">
          <mxGeometry x="140" y="285" width="60" height="30" as="geometry" />
        </mxCell>
        <mxCell id="FwpRCXI6O_V7CuimWUvE-16" value="" style="edgeStyle=orthogonalEdgeStyle;rounded=0;orthogonalLoop=1;jettySize=auto;html=1;" parent="1" source="FwpRCXI6O_V7CuimWUvE-13" target="FwpRCXI6O_V7CuimWUvE-15" edge="1">
          <mxGeometry relative="1" as="geometry" />
        </mxCell>
        <mxCell id="FwpRCXI6O_V7CuimWUvE-13" value="подготавливаем инструмент для замены двери" style="whiteSpace=wrap;html=1;rounded=1;arcSize=0;" parent="1" vertex="1">
          <mxGeometry x="30" y="400" width="120" height="60" as="geometry" />
        </mxCell>
        <mxCell id="FwpRCXI6O_V7CuimWUvE-18" value="" style="edgeStyle=orthogonalEdgeStyle;rounded=0;orthogonalLoop=1;jettySize=auto;html=1;" parent="1" source="FwpRCXI6O_V7CuimWUvE-15" target="FwpRCXI6O_V7CuimWUvE-17" edge="1">
          <mxGeometry relative="1" as="geometry" />
        </mxCell>
        <mxCell id="FwpRCXI6O_V7CuimWUvE-15" value="устанавливаем дверь" style="whiteSpace=wrap;html=1;rounded=1;arcSize=0;" parent="1" vertex="1">
          <mxGeometry x="30" y="470" width="120" height="60" as="geometry" />
        </mxCell>
        <mxCell id="FwpRCXI6O_V7CuimWUvE-17" value="Конец" style="whiteSpace=wrap;html=1;rounded=1;arcSize=15;" parent="1" vertex="1">
          <mxGeometry x="30" y="540" width="120" height="60" as="geometry" />
        </mxCell>
        <mxCell id="e27zW9fdkTWWJZNtVl3l-1" value="НЕТ" style="text;html=1;align=center;verticalAlign=middle;whiteSpace=wrap;rounded=0;" vertex="1" parent="1">
          <mxGeometry x="90" y="370" width="60" height="30" as="geometry" />
        </mxCell>
        <mxCell id="e27zW9fdkTWWJZNtVl3l-4" value="" style="edgeStyle=orthogonalEdgeStyle;rounded=0;orthogonalLoop=1;jettySize=auto;html=1;" edge="1" parent="1" source="e27zW9fdkTWWJZNtVl3l-2" target="e27zW9fdkTWWJZNtVl3l-3">
          <mxGeometry relative="1" as="geometry" />
        </mxCell>
        <mxCell id="e27zW9fdkTWWJZNtVl3l-2" value="Начало" style="rounded=1;whiteSpace=wrap;html=1;" vertex="1" parent="1">
          <mxGeometry x="354" y="100" width="120" height="60" as="geometry" />
        </mxCell>
        <mxCell id="e27zW9fdkTWWJZNtVl3l-6" value="" style="edgeStyle=orthogonalEdgeStyle;rounded=0;orthogonalLoop=1;jettySize=auto;html=1;" edge="1" parent="1" source="e27zW9fdkTWWJZNtVl3l-3" target="e27zW9fdkTWWJZNtVl3l-5">
          <mxGeometry relative="1" as="geometry" />
        </mxCell>
        <mxCell id="e27zW9fdkTWWJZNtVl3l-3" value="взять скейт" style="rounded=1;whiteSpace=wrap;html=1;arcSize=0;" vertex="1" parent="1">
          <mxGeometry x="354" y="170" width="120" height="20" as="geometry" />
        </mxCell>
        <mxCell id="e27zW9fdkTWWJZNtVl3l-8" value="" style="edgeStyle=orthogonalEdgeStyle;rounded=0;orthogonalLoop=1;jettySize=auto;html=1;" edge="1" parent="1" source="e27zW9fdkTWWJZNtVl3l-5" target="e27zW9fdkTWWJZNtVl3l-7">
          <mxGeometry relative="1" as="geometry" />
        </mxCell>
        <mxCell id="e27zW9fdkTWWJZNtVl3l-5" value="найти ровную поверхность" style="shape=parallelogram;perimeter=parallelogramPerimeter;whiteSpace=wrap;html=1;fixedSize=1;rounded=1;arcSize=0;size=-14;" vertex="1" parent="1">
          <mxGeometry x="354" y="200" width="120" height="40" as="geometry" />
        </mxCell>
        <mxCell id="e27zW9fdkTWWJZNtVl3l-12" value="" style="edgeStyle=orthogonalEdgeStyle;rounded=0;orthogonalLoop=1;jettySize=auto;html=1;" edge="1" parent="1" source="e27zW9fdkTWWJZNtVl3l-7" target="e27zW9fdkTWWJZNtVl3l-11">
          <mxGeometry relative="1" as="geometry" />
        </mxCell>
        <mxCell id="e27zW9fdkTWWJZNtVl3l-7" value="поставить одну ногу на скейт" style="whiteSpace=wrap;html=1;rounded=1;arcSize=0;" vertex="1" parent="1">
          <mxGeometry x="354" y="255" width="120" height="35" as="geometry" />
        </mxCell>
        <mxCell id="e27zW9fdkTWWJZNtVl3l-14" value="" style="edgeStyle=orthogonalEdgeStyle;rounded=0;orthogonalLoop=1;jettySize=auto;html=1;" edge="1" parent="1" source="e27zW9fdkTWWJZNtVl3l-11" target="e27zW9fdkTWWJZNtVl3l-13">
          <mxGeometry relative="1" as="geometry" />
        </mxCell>
        <mxCell id="e27zW9fdkTWWJZNtVl3l-11" value="поймать баланс &lt;br&gt;на одной ноге и не упасть" style="shape=trapezoid;perimeter=trapezoidPerimeter;whiteSpace=wrap;html=1;fixedSize=1;rounded=1;arcSize=0;" vertex="1" parent="1">
          <mxGeometry x="347" y="300" width="134" height="70" as="geometry" />
        </mxCell>
        <mxCell id="e27zW9fdkTWWJZNtVl3l-16" value="" style="edgeStyle=orthogonalEdgeStyle;rounded=0;orthogonalLoop=1;jettySize=auto;html=1;" edge="1" parent="1" source="e27zW9fdkTWWJZNtVl3l-13" target="e27zW9fdkTWWJZNtVl3l-15">
          <mxGeometry relative="1" as="geometry" />
        </mxCell>
        <mxCell id="e27zW9fdkTWWJZNtVl3l-13" value="катиться прямо на &lt;br&gt;одной ноге, отталкиваясь второй от земли" style="shape=trapezoid;perimeter=trapezoidPerimeter;whiteSpace=wrap;html=1;fixedSize=1;rounded=1;arcSize=0;" vertex="1" parent="1">
          <mxGeometry x="327" y="390" width="174" height="60" as="geometry" />
        </mxCell>
        <mxCell id="e27zW9fdkTWWJZNtVl3l-18" value="" style="edgeStyle=orthogonalEdgeStyle;rounded=0;orthogonalLoop=1;jettySize=auto;html=1;" edge="1" parent="1" source="e27zW9fdkTWWJZNtVl3l-15" target="e27zW9fdkTWWJZNtVl3l-17">
          <mxGeometry relative="1" as="geometry" />
        </mxCell>
        <mxCell id="e27zW9fdkTWWJZNtVl3l-15" value="во время качения, наклоняя вес тела в нужную сторону ехать в нужною сторону" style="shape=trapezoid;perimeter=trapezoidPerimeter;whiteSpace=wrap;html=1;fixedSize=1;rounded=1;arcSize=0;" vertex="1" parent="1">
          <mxGeometry x="337" y="470" width="154" height="70" as="geometry" />
        </mxCell>
        <mxCell id="e27zW9fdkTWWJZNtVl3l-17" value="Конец" style="whiteSpace=wrap;html=1;rounded=1;arcSize=20;" vertex="1" parent="1">
          <mxGeometry x="354" y="555" width="120" height="45" as="geometry" />
        </mxCell>
        <mxCell id="e27zW9fdkTWWJZNtVl3l-21" value="" style="edgeStyle=orthogonalEdgeStyle;rounded=0;orthogonalLoop=1;jettySize=auto;html=1;" edge="1" parent="1" source="e27zW9fdkTWWJZNtVl3l-19" target="e27zW9fdkTWWJZNtVl3l-20">
          <mxGeometry relative="1" as="geometry" />
        </mxCell>
        <mxCell id="e27zW9fdkTWWJZNtVl3l-19" value="Начало" style="rounded=1;whiteSpace=wrap;html=1;" vertex="1" parent="1">
          <mxGeometry x="670" y="100" width="120" height="60" as="geometry" />
        </mxCell>
        <mxCell id="e27zW9fdkTWWJZNtVl3l-23" value="" style="edgeStyle=orthogonalEdgeStyle;rounded=0;orthogonalLoop=1;jettySize=auto;html=1;" edge="1" parent="1" source="e27zW9fdkTWWJZNtVl3l-20" target="e27zW9fdkTWWJZNtVl3l-22">
          <mxGeometry relative="1" as="geometry" />
        </mxCell>
        <mxCell id="e27zW9fdkTWWJZNtVl3l-20" value="Посмотреть объемы грязной посуды, типы грязи" style="shape=parallelogram;perimeter=parallelogramPerimeter;whiteSpace=wrap;html=1;fixedSize=1;" vertex="1" parent="1">
          <mxGeometry x="655" y="180" width="150" height="60" as="geometry" />
        </mxCell>
        <mxCell id="e27zW9fdkTWWJZNtVl3l-25" value="" style="edgeStyle=orthogonalEdgeStyle;rounded=0;orthogonalLoop=1;jettySize=auto;html=1;" edge="1" parent="1" source="e27zW9fdkTWWJZNtVl3l-22" target="e27zW9fdkTWWJZNtVl3l-24">
          <mxGeometry relative="1" as="geometry" />
        </mxCell>
        <mxCell id="e27zW9fdkTWWJZNtVl3l-22" value="сложить всю грязную посуду на мойку" style="whiteSpace=wrap;html=1;" vertex="1" parent="1">
          <mxGeometry x="670" y="260" width="120" height="60" as="geometry" />
        </mxCell>
        <mxCell id="e27zW9fdkTWWJZNtVl3l-27" value="" style="edgeStyle=orthogonalEdgeStyle;rounded=0;orthogonalLoop=1;jettySize=auto;html=1;" edge="1" parent="1" source="e27zW9fdkTWWJZNtVl3l-24" target="e27zW9fdkTWWJZNtVl3l-26">
          <mxGeometry relative="1" as="geometry" />
        </mxCell>
        <mxCell id="e27zW9fdkTWWJZNtVl3l-24" value="подготовить средства для мытья, щетки, мыло, губки, проверить наличие воды в кране" style="whiteSpace=wrap;html=1;" vertex="1" parent="1">
          <mxGeometry x="670" y="340" width="120" height="80" as="geometry" />
        </mxCell>
        <mxCell id="e27zW9fdkTWWJZNtVl3l-29" value="" style="edgeStyle=orthogonalEdgeStyle;rounded=0;orthogonalLoop=1;jettySize=auto;html=1;" edge="1" parent="1" source="e27zW9fdkTWWJZNtVl3l-26" target="e27zW9fdkTWWJZNtVl3l-28">
          <mxGeometry relative="1" as="geometry" />
        </mxCell>
        <mxCell id="e27zW9fdkTWWJZNtVl3l-26" value="замочить в горячей воде сильные загрязнения, смочить остальное" style="whiteSpace=wrap;html=1;" vertex="1" parent="1">
          <mxGeometry x="670" y="440" width="120" height="60" as="geometry" />
        </mxCell>
        <mxCell id="e27zW9fdkTWWJZNtVl3l-31" value="" style="edgeStyle=orthogonalEdgeStyle;rounded=0;orthogonalLoop=1;jettySize=auto;html=1;" edge="1" parent="1" source="e27zW9fdkTWWJZNtVl3l-28" target="e27zW9fdkTWWJZNtVl3l-30">
          <mxGeometry relative="1" as="geometry" />
        </mxCell>
        <mxCell id="e27zW9fdkTWWJZNtVl3l-28" value="механический всю посуду влажной губкой с мылом почистить" style="whiteSpace=wrap;html=1;" vertex="1" parent="1">
          <mxGeometry x="670" y="524.5" width="120" height="60" as="geometry" />
        </mxCell>
        <mxCell id="e27zW9fdkTWWJZNtVl3l-33" value="" style="edgeStyle=orthogonalEdgeStyle;rounded=0;orthogonalLoop=1;jettySize=auto;html=1;" edge="1" parent="1" source="e27zW9fdkTWWJZNtVl3l-30" target="e27zW9fdkTWWJZNtVl3l-32">
          <mxGeometry relative="1" as="geometry" />
        </mxCell>
        <mxCell id="e27zW9fdkTWWJZNtVl3l-30" value="смывать и сложить на сушилку" style="whiteSpace=wrap;html=1;" vertex="1" parent="1">
          <mxGeometry x="670" y="600" width="120" height="40" as="geometry" />
        </mxCell>
        <mxCell id="e27zW9fdkTWWJZNtVl3l-34" style="edgeStyle=orthogonalEdgeStyle;rounded=0;orthogonalLoop=1;jettySize=auto;html=1;exitX=0;exitY=0.5;exitDx=0;exitDy=0;" edge="1" parent="1" source="e27zW9fdkTWWJZNtVl3l-32">
          <mxGeometry relative="1" as="geometry">
            <mxPoint x="730" y="440" as="targetPoint" />
            <Array as="points">
              <mxPoint x="650" y="715" />
              <mxPoint x="650" y="430" />
              <mxPoint x="731" y="430" />
            </Array>
          </mxGeometry>
        </mxCell>
        <mxCell id="e27zW9fdkTWWJZNtVl3l-38" value="" style="edgeStyle=orthogonalEdgeStyle;rounded=0;orthogonalLoop=1;jettySize=auto;html=1;" edge="1" parent="1" source="e27zW9fdkTWWJZNtVl3l-32" target="e27zW9fdkTWWJZNtVl3l-37">
          <mxGeometry relative="1" as="geometry" />
        </mxCell>
        <mxCell id="e27zW9fdkTWWJZNtVl3l-32" value="смылась вся &lt;br&gt;грязь с посуды?" style="rhombus;whiteSpace=wrap;html=1;" vertex="1" parent="1">
          <mxGeometry x="670" y="660" width="120" height="110" as="geometry" />
        </mxCell>
        <mxCell id="e27zW9fdkTWWJZNtVl3l-35" value="да" style="text;html=1;align=center;verticalAlign=middle;whiteSpace=wrap;rounded=0;" vertex="1" parent="1">
          <mxGeometry x="655" y="750" width="60" height="30" as="geometry" />
        </mxCell>
        <mxCell id="e27zW9fdkTWWJZNtVl3l-36" value="Нет" style="text;html=1;align=center;verticalAlign=middle;whiteSpace=wrap;rounded=0;" vertex="1" parent="1">
          <mxGeometry x="650" y="670" width="60" height="30" as="geometry" />
        </mxCell>
        <mxCell id="e27zW9fdkTWWJZNtVl3l-40" value="" style="edgeStyle=orthogonalEdgeStyle;rounded=0;orthogonalLoop=1;jettySize=auto;html=1;" edge="1" parent="1" source="e27zW9fdkTWWJZNtVl3l-37" target="e27zW9fdkTWWJZNtVl3l-39">
          <mxGeometry relative="1" as="geometry" />
        </mxCell>
        <mxCell id="e27zW9fdkTWWJZNtVl3l-37" value="высушить или слить остатки воды " style="whiteSpace=wrap;html=1;" vertex="1" parent="1">
          <mxGeometry x="670" y="790" width="120" height="40" as="geometry" />
        </mxCell>
        <mxCell id="e27zW9fdkTWWJZNtVl3l-42" value="" style="edgeStyle=orthogonalEdgeStyle;rounded=0;orthogonalLoop=1;jettySize=auto;html=1;" edge="1" parent="1" source="e27zW9fdkTWWJZNtVl3l-39" target="e27zW9fdkTWWJZNtVl3l-41">
          <mxGeometry relative="1" as="geometry" />
        </mxCell>
        <mxCell id="e27zW9fdkTWWJZNtVl3l-39" value="разложить посуду по местам" style="whiteSpace=wrap;html=1;" vertex="1" parent="1">
          <mxGeometry x="670" y="850" width="120" height="60" as="geometry" />
        </mxCell>
        <mxCell id="e27zW9fdkTWWJZNtVl3l-41" value="Конец" style="rounded=1;whiteSpace=wrap;html=1;" vertex="1" parent="1">
          <mxGeometry x="670" y="930" width="120" height="60" as="geometry" />
        </mxCell>
      </root>
    </mxGraphModel>
  </diagram>
</mxfile>
